{
	"asset":{
		"version":"2.0",
		"generator":"Created using the official Cinema 4D glTF Exporter 1.000x284978"
	},
	"scenes":[{
		"nodes":[0]
	}],
	"nodes":[{
		"name":"Metal",
		"translation":[0.0,
		1.887852668762207,
		0.0],
		"rotation":[0.0,
		0.0,
		0.0,
		-1.0],
		"scale":[1.0,
		1.0,
		1.0],
		"mesh":0
	}],
	"materials":[{
		"pbrMetallicRoughness":{
			"baseColorTexture":{
				"index":0
			},
			"baseColorFactor":[1.0,
			1.0,
			1.0,
			1.0],
			"metallicFactor":0.0,
			"roughnessFactor":0.6
		},
		"emissiveTexture":{
			"index":1
		},
		"emissiveFactor":[0.27,
		0.27,
		0.27],
		"alphaMode":"OPAQUE",
		"doubleSided":false,
		"name":"Mat.2"
	}],
	"meshes":[{
		"name":"Metal",
		"primitives":[{
			"attributes":{
				"POSITION":1,
				"NORMAL":2,
				"TEXCOORD_0":3
			},
			"indices":0,
			"material":0
		}]
	}],
	"accessors":[{
		"bufferView":0,
		"max":[2965],
		"type":"SCALAR",
		"componentType":5123,
		"count":14028,
		"byteOffset":0,
		"min":[0]
	},
	{
		"bufferView":1,
		"max":[1.9639081954956055,
		1.7587753534317017,
		4.170000076293945],
		"type":"VEC3",
		"componentType":5126,
		"count":2966,
		"byteOffset":0,
		"min":[-2.0386226177215578,
		-1.7587753534317017,
		-0.17000015079975129]
	},
	{
		"bufferView":1,
		"max":[0.9998796582221985,
		1.0,
		1.0],
		"type":"VEC3",
		"componentType":5126,
		"count":2966,
		"byteOffset":12,
		"min":[-0.9999995827674866,
		-1.0,
		-1.0]
	},
	{
		"bufferView":1,
		"max":[0.9990243911743164,
		0.896132230758667],
		"type":"VEC2",
		"componentType":5126,
		"count":2966,
		"byteOffset":24,
		"min":[0.0003256558266002685,
		0.000325655797496438]
	}],
	"bufferViews":[{
		"buffer":0,
		"byteOffset":0,
		"byteLength":28056,
		"target":34963
	},
	{
		"buffer":0,
		"byteOffset":28056,
		"byteLength":94912,
		"target":34962,
		"byteStride":32
	}],
	"buffers":[{
		"uri":"data:application/octet-stream;base64,",
		"byteLength":122968
	}],
	"images":[{
		"uri":"data:image/jpeg;base64,"
	},
	{
		"uri":"data:image/jpeg;base64,"
	}],
	"samplers":[{
		"magFilter":9729,
		"minFilter":9729,
		"wrapS":10497,
		"wrapT":10497
	},
	{
		"magFilter":9729,
		"minFilter":9729,
		"wrapS":10497,
		"wrapT":10497
	}],
	"textures":[{
		"sampler":0,
		"source":0
	},
	{
		"sampler":1,
		"source":1
	}]
}